<svg xmlns="http://www.w3.org/2000/svg" xmlns:xlink="http://www.w3.org/1999/xlink" width="575" zoomAndPan="magnify" viewBox="0 0 431.25 172.499995" height="230" preserveAspectRatio="xMidYMid meet" version="1.0"><defs><g/></defs><g fill="#000000" fill-opacity="1"><g transform="translate(95.726275, 65.355218)"><g><path d="M -2.125 0.828125 C -2.570312 0.171875 -2.796875 -0.582031 -2.796875 -1.4375 L -2.796875 -1.59375 C -2.796875 -1.59375 -2.796875 -1.644531 -2.796875 -1.75 C -2.703125 -3.0625 -2.25 -3.941406 -1.4375 -4.390625 C -0.882812 -4.742188 -0.253906 -4.921875 0.453125 -4.921875 L 1.140625 -4.921875 C 2.097656 -4.921875 2.726562 -5.097656 3.03125 -5.453125 C 3.632812 -6.109375 4.113281 -6.816406 4.46875 -7.578125 C 4.519531 -7.785156 4.582031 -7.960938 4.65625 -8.109375 C 4.738281 -8.265625 4.800781 -8.40625 4.84375 -8.53125 C 4.894531 -8.65625 4.945312 -8.765625 5 -8.859375 C 5.050781 -8.960938 5.085938 -9.066406 5.109375 -9.171875 C 5.140625 -9.273438 5.179688 -9.363281 5.234375 -9.4375 C 5.285156 -9.507812 5.3125 -9.570312 5.3125 -9.625 L 7.125 -13.953125 L 18.5625 -41 C 18.769531 -41.507812 18.875 -41.863281 18.875 -42.0625 L 18.796875 -42.375 C 18.242188 -42.675781 17.4375 -42.925781 16.375 -43.125 C 15.257812 -43.332031 14.472656 -43.613281 14.015625 -43.96875 C 13.316406 -44.519531 12.96875 -45.453125 12.96875 -46.765625 C 12.96875 -48.078125 13.421875 -49.015625 14.328125 -49.578125 C 14.984375 -49.972656 15.84375 -50.171875 16.90625 -50.171875 C 17.8125 -50.171875 18.644531 -50.144531 19.40625 -50.09375 C 20.164062 -50.050781 20.875 -49.988281 21.53125 -49.90625 C 22.1875 -49.832031 22.816406 -49.722656 23.421875 -49.578125 C 25.242188 -49.066406 26.835938 -48.128906 28.203125 -46.765625 C 29.460938 -45.453125 30.625 -43.507812 31.6875 -40.9375 L 44.421875 -9.546875 C 45.128906 -7.773438 45.785156 -6.488281 46.390625 -5.6875 C 46.585938 -5.4375 46.8125 -5.242188 47.0625 -5.109375 C 47.320312 -4.984375 47.65625 -4.921875 48.0625 -4.921875 L 48.515625 -4.921875 C 49.472656 -4.921875 50.226562 -4.671875 50.78125 -4.171875 C 50.882812 -4.117188 50.984375 -4.039062 51.078125 -3.9375 C 51.179688 -3.84375 51.257812 -3.753906 51.3125 -3.671875 C 51.363281 -3.597656 51.414062 -3.507812 51.46875 -3.40625 C 51.519531 -3.3125 51.554688 -3.222656 51.578125 -3.140625 C 51.609375 -3.066406 51.632812 -2.96875 51.65625 -2.84375 C 51.675781 -2.71875 51.695312 -2.628906 51.71875 -2.578125 C 51.75 -2.523438 51.765625 -2.4375 51.765625 -2.3125 C 51.765625 -2.1875 51.773438 -2.097656 51.796875 -2.046875 C 51.828125 -1.992188 51.84375 -1.914062 51.84375 -1.8125 C 51.84375 -1.71875 51.84375 -1.644531 51.84375 -1.59375 L 51.84375 -1.4375 C 51.84375 -0.582031 51.613281 0.171875 51.15625 0.828125 C 50.957031 1.085938 50.71875 1.316406 50.4375 1.515625 C 50.164062 1.710938 49.863281 1.863281 49.53125 1.96875 C 49.207031 2.070312 48.890625 2.125 48.578125 2.125 L 48.515625 2.125 C 45.273438 1.96875 42.519531 1.890625 40.25 1.890625 C 37.269531 1.890625 34.160156 1.96875 30.921875 2.125 L 30.84375 2.125 C 30.539062 2.125 30.222656 2.070312 29.890625 1.96875 C 29.566406 1.863281 29.265625 1.710938 28.984375 1.515625 C 28.710938 1.316406 28.472656 1.085938 28.265625 0.828125 C 28.015625 0.472656 27.835938 0.109375 27.734375 -0.265625 C 27.640625 -0.640625 27.59375 -1.03125 27.59375 -1.4375 L 27.59375 -1.59375 C 27.6875 -2.800781 28.039062 -3.660156 28.65625 -4.171875 C 29.207031 -4.671875 29.960938 -4.921875 30.921875 -4.921875 C 32.285156 -4.921875 33.222656 -5.023438 33.734375 -5.234375 C 33.734375 -5.285156 33.734375 -5.3125 33.734375 -5.3125 C 33.734375 -5.351562 33.707031 -5.5 33.65625 -5.75 C 33.601562 -6.007812 33.515625 -6.363281 33.390625 -6.8125 C 33.265625 -7.269531 33.125 -7.726562 32.96875 -8.1875 L 30.84375 -13.265625 L 14.703125 -13.265625 C 14.203125 -12.054688 13.820312 -11.097656 13.5625 -10.390625 C 13.257812 -9.734375 13.082031 -9.300781 13.03125 -9.09375 C 12.988281 -8.988281 12.941406 -8.835938 12.890625 -8.640625 C 12.890625 -8.535156 12.875 -8.457031 12.84375 -8.40625 C 12.820312 -8.363281 12.8125 -8.316406 12.8125 -8.265625 C 12.5625 -7.554688 12.359375 -6.910156 12.203125 -6.328125 C 12.046875 -5.742188 11.96875 -5.378906 11.96875 -5.234375 C 12.632812 -5.023438 13.820312 -4.921875 15.53125 -4.921875 L 16 -4.921875 C 16.957031 -4.921875 17.710938 -4.671875 18.265625 -4.171875 C 18.867188 -3.660156 19.222656 -2.800781 19.328125 -1.59375 L 19.328125 -1.4375 C 19.328125 -0.582031 19.097656 0.171875 18.640625 0.828125 C 18.335938 1.234375 17.957031 1.550781 17.5 1.78125 C 17.050781 2.007812 16.570312 2.125 16.0625 2.125 L 16 2.125 C 14.375 2.019531 12.878906 1.953125 11.515625 1.921875 C 10.148438 1.898438 8.914062 1.890625 7.8125 1.890625 C 6.238281 1.890625 3.8125 1.96875 0.53125 2.125 L 0.453125 2.125 C -0.660156 2.125 -1.519531 1.691406 -2.125 0.828125 Z M 17.65625 -20.3125 L 27.96875 -20.3125 L 22.96875 -33.125 Z M 17.65625 -20.3125 "/></g></g></g><g fill="#000000" fill-opacity="1"><g transform="translate(145.216475, 65.355218)"><g><path d="M 6.0625 -2.734375 C 2.832031 -6.367188 1.21875 -11.191406 1.21875 -17.203125 C 1.3125 -20.992188 2.242188 -24.378906 4.015625 -27.359375 C 4.566406 -28.367188 5.207031 -29.300781 5.9375 -30.15625 C 6.675781 -31.019531 7.472656 -31.804688 8.328125 -32.515625 C 9.191406 -33.222656 10.128906 -33.851562 11.140625 -34.40625 C 13.367188 -35.71875 15.769531 -36.550781 18.34375 -36.90625 C 19.15625 -37.007812 20.015625 -37.085938 20.921875 -37.140625 C 22.078125 -37.140625 23.1875 -37.0625 24.25 -36.90625 C 25.3125 -36.757812 26.332031 -36.535156 27.3125 -36.234375 C 28.300781 -35.929688 29.253906 -35.550781 30.171875 -35.09375 C 31.628906 -34.332031 32.75 -33.28125 33.53125 -31.9375 C 34.320312 -30.601562 34.71875 -29.078125 34.71875 -27.359375 C 34.71875 -25.335938 34.109375 -23.570312 32.890625 -22.0625 C 31.578125 -20.394531 29.835938 -19.5625 27.671875 -19.5625 C 26.304688 -19.5625 25.117188 -19.9375 24.109375 -20.6875 C 22.890625 -21.550781 22.28125 -22.488281 22.28125 -23.5 C 22.28125 -23.851562 22.316406 -24.164062 22.390625 -24.4375 C 22.472656 -24.71875 22.578125 -24.921875 22.703125 -25.046875 C 22.828125 -25.171875 22.9375 -25.257812 23.03125 -25.3125 C 23.132812 -25.363281 23.25 -25.414062 23.375 -25.46875 C 23.507812 -25.519531 23.578125 -25.570312 23.578125 -25.625 C 23.929688 -25.875 24.257812 -26.226562 24.5625 -26.6875 C 24.613281 -26.832031 24.660156 -26.976562 24.703125 -27.125 C 24.753906 -27.28125 24.78125 -27.460938 24.78125 -27.671875 C 24.78125 -27.816406 24.78125 -27.953125 24.78125 -28.078125 C 24.78125 -28.203125 24.765625 -28.328125 24.734375 -28.453125 C 24.710938 -28.585938 24.675781 -28.703125 24.625 -28.796875 C 24.582031 -28.898438 24.535156 -28.988281 24.484375 -29.0625 C 24.429688 -29.144531 24.378906 -29.222656 24.328125 -29.296875 C 24.273438 -29.367188 24.210938 -29.429688 24.140625 -29.484375 C 24.066406 -29.535156 23.976562 -29.613281 23.875 -29.71875 C 23.46875 -29.96875 23.023438 -30.164062 22.546875 -30.3125 C 22.066406 -30.46875 21.5 -30.546875 20.84375 -30.546875 C 20.238281 -30.546875 19.679688 -30.519531 19.171875 -30.46875 C 17.003906 -30.113281 15.488281 -29.078125 14.625 -27.359375 C 13.363281 -24.734375 12.734375 -21.425781 12.734375 -17.4375 C 12.734375 -13.59375 13.566406 -10.457031 15.234375 -8.03125 C 16.796875 -5.863281 18.84375 -4.78125 21.375 -4.78125 C 21.976562 -4.78125 22.554688 -4.816406 23.109375 -4.890625 C 23.671875 -4.960938 24.191406 -5.085938 24.671875 -5.265625 C 25.148438 -5.441406 25.59375 -5.65625 26 -5.90625 C 27.257812 -6.664062 28.445312 -7.878906 29.5625 -9.546875 C 29.8125 -9.953125 30.148438 -10.269531 30.578125 -10.5 C 31.015625 -10.726562 31.457031 -10.84375 31.90625 -10.84375 C 32.414062 -10.84375 33 -10.691406 33.65625 -10.390625 C 34.207031 -10.128906 34.644531 -9.722656 34.96875 -9.171875 C 35.300781 -8.617188 35.46875 -8.035156 35.46875 -7.421875 C 35.46875 -6.921875 35.289062 -6.394531 34.9375 -5.84375 L 34.9375 -5.765625 L 34.859375 -5.765625 C 33.046875 -3.128906 30.773438 -1.054688 28.046875 0.453125 C 25.316406 2.015625 22.507812 2.796875 19.625 2.796875 C 13.914062 2.796875 9.394531 0.953125 6.0625 -2.734375 Z M 6.0625 -2.734375 "/></g></g></g><g fill="#000000" fill-opacity="1"><g transform="translate(181.216245, 65.355218)"><g><path d="M 10.15625 0.078125 C 7.226562 -1.691406 5.003906 -4.144531 3.484375 -7.28125 C 1.972656 -10.3125 1.21875 -13.671875 1.21875 -17.359375 C 1.21875 -20.640625 1.972656 -23.796875 3.484375 -26.828125 C 5.054688 -29.859375 7.253906 -32.335938 10.078125 -34.265625 C 12.960938 -36.179688 16.273438 -37.140625 20.015625 -37.140625 C 25.015625 -37.140625 28.90625 -35.828125 31.6875 -33.203125 C 34.46875 -30.566406 36.054688 -27.050781 36.453125 -22.65625 L 36.453125 -22.515625 C 36.453125 -20.191406 35.722656 -18.523438 34.265625 -17.515625 C 33.046875 -16.703125 31.375 -16.296875 29.25 -16.296875 L 12.8125 -16.296875 C 13.007812 -12.859375 13.84375 -10.128906 15.3125 -8.109375 C 16.875 -5.890625 19.375 -4.78125 22.8125 -4.78125 C 23.164062 -4.78125 23.519531 -4.789062 23.875 -4.8125 C 24.226562 -4.832031 24.566406 -4.878906 24.890625 -4.953125 C 25.222656 -5.035156 25.523438 -5.113281 25.796875 -5.1875 C 26.078125 -5.269531 26.34375 -5.375 26.59375 -5.5 C 26.851562 -5.625 27.109375 -5.757812 27.359375 -5.90625 C 28.617188 -6.664062 29.859375 -8.03125 31.078125 -10 L 31.15625 -10.234375 L 31.296875 -10.390625 C 31.609375 -10.640625 31.9375 -10.851562 32.28125 -11.03125 C 32.632812 -11.207031 33.015625 -11.296875 33.421875 -11.296875 C 33.578125 -11.296875 33.753906 -11.269531 33.953125 -11.21875 C 34.160156 -11.164062 34.351562 -11.113281 34.53125 -11.0625 C 34.707031 -11.007812 34.867188 -10.945312 35.015625 -10.875 C 35.171875 -10.800781 35.296875 -10.738281 35.390625 -10.6875 C 36.453125 -9.976562 36.984375 -8.992188 36.984375 -7.734375 C 36.984375 -7.429688 36.945312 -7.140625 36.875 -6.859375 C 36.800781 -6.578125 36.6875 -6.285156 36.53125 -5.984375 C 35.675781 -4.671875 34.691406 -3.457031 33.578125 -2.34375 C 32.460938 -1.238281 31.25 -0.304688 29.9375 0.453125 C 27.257812 2.015625 24.226562 2.796875 20.84375 2.796875 C 16.695312 2.796875 13.132812 1.890625 10.15625 0.078125 Z M 23.1875 -22.96875 C 24.101562 -22.96875 24.6875 -23.066406 24.9375 -23.265625 C 25.1875 -23.472656 25.335938 -23.828125 25.390625 -24.328125 C 25.390625 -24.628906 25.375 -24.90625 25.34375 -25.15625 C 25.320312 -25.414062 25.285156 -25.671875 25.234375 -25.921875 C 25.191406 -26.171875 25.144531 -26.410156 25.09375 -26.640625 C 25.039062 -26.867188 24.972656 -27.082031 24.890625 -27.28125 C 24.816406 -27.488281 24.726562 -27.691406 24.625 -27.890625 C 24.53125 -28.097656 24.421875 -28.289062 24.296875 -28.46875 C 24.171875 -28.644531 24.03125 -28.832031 23.875 -29.03125 C 23.414062 -29.582031 22.882812 -30 22.28125 -30.28125 C 21.675781 -30.5625 20.921875 -30.703125 20.015625 -30.703125 C 18.035156 -30.703125 16.390625 -29.914062 15.078125 -28.34375 C 14.015625 -26.976562 13.3125 -25.1875 12.96875 -22.96875 Z M 23.1875 -22.96875 "/></g></g></g><g fill="#000000" fill-opacity="1"><g transform="translate(219.262308, 65.355218)"><g><path d="M 1.359375 0.90625 C 0.859375 0.25 0.609375 -0.476562 0.609375 -1.28125 L 0.609375 -1.4375 C 0.609375 -1.4375 0.609375 -1.460938 0.609375 -1.515625 C 0.710938 -2.828125 1.21875 -3.710938 2.125 -4.171875 C 2.625 -4.421875 3.359375 -4.546875 4.328125 -4.546875 C 5.179688 -4.546875 5.707031 -4.625 5.90625 -4.78125 C 6.0625 -4.925781 6.164062 -5.050781 6.21875 -5.15625 C 6.269531 -5.707031 6.296875 -6.59375 6.296875 -7.8125 L 6.296875 -25.171875 C 6.296875 -26.378906 6.269531 -27.257812 6.21875 -27.8125 C 6.164062 -27.914062 6.0625 -28.046875 5.90625 -28.203125 C 5.707031 -28.347656 5.179688 -28.421875 4.328125 -28.421875 C 3.359375 -28.421875 2.570312 -28.597656 1.96875 -28.953125 C 1.0625 -29.503906 0.609375 -30.460938 0.609375 -31.828125 C 0.609375 -32.535156 0.832031 -33.195312 1.28125 -33.8125 C 1.789062 -34.507812 2.523438 -34.9375 3.484375 -35.09375 C 5.003906 -35.289062 6.421875 -35.550781 7.734375 -35.875 C 9.046875 -36.207031 10.179688 -36.550781 11.140625 -36.90625 L 11.21875 -36.984375 L 11.296875 -36.984375 C 12.203125 -37.242188 12.859375 -37.421875 13.265625 -37.515625 L 13.796875 -37.515625 C 14.703125 -37.515625 15.445312 -37.171875 16.03125 -36.484375 C 16.613281 -35.804688 16.90625 -35.039062 16.90625 -34.1875 L 16.90625 -33.5 C 17.8125 -34.207031 18.742188 -34.816406 19.703125 -35.328125 C 20.359375 -35.722656 21.015625 -36.046875 21.671875 -36.296875 C 22.328125 -36.554688 22.984375 -36.757812 23.640625 -36.90625 C 24.304688 -37.0625 24.941406 -37.140625 25.546875 -37.140625 C 26.253906 -37.140625 26.945312 -37.035156 27.625 -36.828125 C 28.3125 -36.628906 28.929688 -36.335938 29.484375 -35.953125 C 30.035156 -35.578125 30.539062 -35.113281 31 -34.5625 C 31.601562 -33.800781 32.066406 -32.953125 32.390625 -32.015625 C 32.722656 -31.085938 32.890625 -30.117188 32.890625 -29.109375 C 32.890625 -27.234375 32.335938 -25.585938 31.234375 -24.171875 C 29.960938 -22.554688 28.269531 -21.75 26.15625 -21.75 C 25.800781 -21.75 25.46875 -21.773438 25.15625 -21.828125 C 24.851562 -21.878906 24.550781 -21.953125 24.25 -22.046875 C 23.945312 -22.148438 23.644531 -22.28125 23.34375 -22.4375 C 23.34375 -22.488281 23.253906 -22.550781 23.078125 -22.625 C 22.898438 -22.695312 22.773438 -22.757812 22.703125 -22.8125 C 22.628906 -22.863281 22.523438 -22.9375 22.390625 -23.03125 C 22.265625 -23.132812 22.148438 -23.25 22.046875 -23.375 C 21.953125 -23.507812 21.863281 -23.664062 21.78125 -23.84375 C 21.707031 -24.019531 21.648438 -24.207031 21.609375 -24.40625 L 21.453125 -25.09375 L 21.75 -25.6875 C 21.800781 -25.84375 21.863281 -25.984375 21.9375 -26.109375 C 22.019531 -26.234375 22.082031 -26.320312 22.125 -26.375 C 22.175781 -26.425781 22.265625 -26.523438 22.390625 -26.671875 C 22.523438 -26.828125 22.640625 -26.957031 22.734375 -27.0625 C 22.835938 -27.164062 22.898438 -27.253906 22.921875 -27.328125 C 22.953125 -27.398438 22.96875 -27.515625 22.96875 -27.671875 C 22.96875 -27.867188 22.953125 -28.03125 22.921875 -28.15625 C 22.898438 -28.28125 22.875 -28.367188 22.84375 -28.421875 C 22.820312 -28.472656 22.785156 -28.550781 22.734375 -28.65625 C 22.535156 -28.75 22.359375 -28.796875 22.203125 -28.796875 C 21.703125 -28.796875 20.945312 -28.46875 19.9375 -27.8125 C 19.726562 -27.71875 19.535156 -27.59375 19.359375 -27.4375 C 19.179688 -27.289062 18.992188 -27.140625 18.796875 -26.984375 C 18.597656 -26.828125 18.394531 -26.671875 18.1875 -26.515625 C 17.988281 -26.367188 17.785156 -26.207031 17.578125 -26.03125 C 17.378906 -25.851562 17.179688 -25.664062 16.984375 -25.46875 L 16.984375 -7.8125 C 16.984375 -6.59375 17.03125 -5.734375 17.125 -5.234375 C 17.125 -5.128906 17.226562 -4.976562 17.4375 -4.78125 C 17.4375 -4.78125 17.484375 -4.765625 17.578125 -4.734375 C 17.679688 -4.710938 17.859375 -4.675781 18.109375 -4.625 C 18.367188 -4.570312 18.675781 -4.546875 19.03125 -4.546875 L 19.484375 -4.546875 C 20.285156 -4.546875 20.96875 -4.34375 21.53125 -3.9375 C 22.1875 -3.4375 22.5625 -2.601562 22.65625 -1.4375 L 22.65625 -1.28125 C 22.65625 -1.082031 22.644531 -0.894531 22.625 -0.71875 C 22.601562 -0.539062 22.566406 -0.363281 22.515625 -0.1875 C 22.460938 -0.0078125 22.394531 0.164062 22.3125 0.34375 C 22.238281 0.519531 22.15625 0.679688 22.0625 0.828125 C 21.851562 1.085938 21.609375 1.316406 21.328125 1.515625 C 21.054688 1.710938 20.769531 1.863281 20.46875 1.96875 C 20.164062 2.070312 19.863281 2.125 19.5625 2.125 L 19.484375 2.125 C 16.546875 1.96875 13.914062 1.890625 11.59375 1.890625 C 10.476562 1.890625 9.265625 1.898438 7.953125 1.921875 C 6.640625 1.953125 5.253906 2.019531 3.796875 2.125 L 3.71875 2.125 C 2.757812 2.125 1.972656 1.71875 1.359375 0.90625 Z M 1.359375 0.90625 "/></g></g></g><g fill="#000000" fill-opacity="1"><g transform="translate(251.472624, 65.355218)"><g><path d="M 11.75 -12.125 C 11.550781 -12.632812 10.84375 -14.453125 9.625 -17.578125 C 8.46875 -20.660156 7.378906 -23.238281 6.359375 -25.3125 L 6.296875 -25.3125 L 6.296875 -25.390625 C 5.535156 -27.109375 4.878906 -28.269531 4.328125 -28.875 C 4.117188 -29.03125 3.820312 -29.195312 3.4375 -29.375 C 3.0625 -29.550781 2.597656 -29.664062 2.046875 -29.71875 L 1.8125 -29.78125 L 1.671875 -29.78125 C 1.671875 -29.78125 1.617188 -29.789062 1.515625 -29.8125 C 1.410156 -29.84375 1.3125 -29.859375 1.21875 -29.859375 C 0.15625 -30.015625 -0.578125 -30.492188 -0.984375 -31.296875 C -1.234375 -31.753906 -1.359375 -32.390625 -1.359375 -33.203125 C -1.359375 -33.753906 -1.242188 -34.296875 -1.015625 -34.828125 C -0.796875 -35.359375 -0.378906 -35.773438 0.234375 -36.078125 C 0.785156 -36.328125 1.414062 -36.453125 2.125 -36.453125 C 2.570312 -36.503906 2.898438 -36.53125 3.109375 -36.53125 C 6.597656 -36.6875 9.378906 -36.15625 11.453125 -34.9375 C 13.515625 -33.726562 15.226562 -31.632812 16.59375 -28.65625 C 16.644531 -28.5 17.632812 -26.046875 19.5625 -21.296875 C 20.820312 -18.066406 21.90625 -15.390625 22.8125 -13.265625 L 24.9375 -18.875 L 28.734375 -29.03125 C 28.828125 -29.28125 28.898438 -29.507812 28.953125 -29.71875 C 28.753906 -29.757812 28.550781 -29.78125 28.34375 -29.78125 C 28.144531 -29.78125 27.921875 -29.78125 27.671875 -29.78125 L 27.21875 -29.78125 C 26.8125 -29.78125 26.441406 -29.832031 26.109375 -29.9375 C 25.785156 -30.039062 25.445312 -30.21875 25.09375 -30.46875 C 24.53125 -30.976562 24.203125 -31.785156 24.109375 -32.890625 L 24.109375 -33.046875 C 24.109375 -33.703125 24.257812 -34.332031 24.5625 -34.9375 C 25.113281 -35.945312 25.945312 -36.453125 27.0625 -36.453125 L 27.140625 -36.453125 C 28.097656 -36.398438 29.003906 -36.363281 29.859375 -36.34375 C 30.722656 -36.320312 31.53125 -36.296875 32.28125 -36.265625 C 33.039062 -36.242188 33.75 -36.234375 34.40625 -36.234375 C 35.164062 -36.234375 36.707031 -36.28125 39.03125 -36.375 L 40.625 -36.453125 L 40.703125 -36.453125 C 41.765625 -36.453125 42.570312 -36 43.125 -35.09375 C 43.53125 -34.4375 43.734375 -33.753906 43.734375 -33.046875 L 43.734375 -32.890625 C 43.628906 -31.734375 43.25 -30.898438 42.59375 -30.390625 C 42.039062 -29.984375 41.359375 -29.78125 40.546875 -29.78125 C 39.742188 -29.78125 39.0625 -29.71875 38.5 -29.59375 C 37.945312 -29.46875 37.519531 -29.332031 37.21875 -29.1875 C 36.5625 -28.78125 35.953125 -27.894531 35.390625 -26.53125 C 34.785156 -24.914062 33.851562 -22.566406 32.59375 -19.484375 C 31.582031 -16.953125 30.34375 -13.921875 28.875 -10.390625 C 28.375 -9.066406 27.84375 -7.671875 27.28125 -6.203125 C 26.726562 -4.742188 26.3125 -3.597656 26.03125 -2.765625 C 25.757812 -1.929688 25.445312 -1.109375 25.09375 -0.296875 C 24.738281 0.503906 24.410156 1.117188 24.109375 1.546875 C 23.804688 1.984375 23.453125 2.273438 23.046875 2.421875 L 22.65625 2.65625 L 17.8125 2.65625 L 17.28125 1.59375 C 15.96875 -1.289062 14.125 -5.863281 11.75 -12.125 Z M 11.75 -12.125 "/></g></g></g><g fill="#000000" fill-opacity="1"><g transform="translate(293.232354, 65.355218)"><g><path d="M 10.609375 0.078125 C 9.847656 -0.378906 9.140625 -0.875 8.484375 -1.40625 C 7.828125 -1.9375 7.207031 -2.503906 6.625 -3.109375 C 6.050781 -3.710938 5.523438 -4.351562 5.046875 -5.03125 C 4.566406 -5.71875 4.125 -6.414062 3.71875 -7.125 C 2.050781 -10.15625 1.21875 -13.335938 1.21875 -16.671875 C 1.21875 -20.816406 2.203125 -24.457031 4.171875 -27.59375 C 6.085938 -30.675781 8.5625 -33.035156 11.59375 -34.671875 C 14.625 -36.316406 17.679688 -37.140625 20.765625 -37.140625 C 22.640625 -37.140625 24.4375 -36.910156 26.15625 -36.453125 C 27.875 -36.003906 29.460938 -35.320312 30.921875 -34.40625 C 33.898438 -32.59375 36.210938 -30.179688 37.859375 -27.171875 C 39.503906 -24.160156 40.328125 -20.988281 40.328125 -17.65625 C 40.328125 -13.519531 39.34375 -9.882812 37.375 -6.75 C 35.394531 -3.664062 32.890625 -1.304688 29.859375 0.328125 C 26.828125 1.972656 23.796875 2.796875 20.765625 2.796875 C 16.972656 2.796875 13.585938 1.890625 10.609375 0.078125 Z M 26.6875 -7.203125 C 26.9375 -7.703125 27.171875 -8.242188 27.390625 -8.828125 C 27.617188 -9.410156 27.820312 -10.03125 28 -10.6875 C 28.175781 -11.34375 28.328125 -12.035156 28.453125 -12.765625 C 28.585938 -13.503906 28.675781 -14.289062 28.71875 -15.125 C 28.769531 -15.957031 28.796875 -16.800781 28.796875 -17.65625 C 28.796875 -21.65625 28.066406 -24.890625 26.609375 -27.359375 C 25.335938 -29.484375 23.390625 -30.546875 20.765625 -30.546875 C 19.296875 -30.546875 18.09375 -30.28125 17.15625 -29.75 C 16.226562 -29.21875 15.460938 -28.375 14.859375 -27.21875 C 14.398438 -26.351562 14.019531 -25.398438 13.71875 -24.359375 C 13.414062 -23.328125 13.175781 -22.179688 13 -20.921875 C 12.820312 -19.660156 12.734375 -18.296875 12.734375 -16.828125 C 12.734375 -12.835938 13.46875 -9.578125 14.9375 -7.046875 C 15.59375 -5.929688 16.375 -5.109375 17.28125 -4.578125 C 18.1875 -4.054688 19.347656 -3.796875 20.765625 -3.796875 C 21.722656 -3.796875 22.554688 -3.921875 23.265625 -4.171875 C 23.972656 -4.421875 24.601562 -4.785156 25.15625 -5.265625 C 25.71875 -5.742188 26.226562 -6.390625 26.6875 -7.203125 Z M 26.6875 -7.203125 "/></g></g></g><g fill="#000000" fill-opacity="1"><g transform="translate(7.887324, 151.508226)"><g><path d="M 14.40625 0.453125 C 10.507812 -1.566406 7.425781 -4.625 5.15625 -8.71875 C 2.925781 -12.8125 1.8125 -17.765625 1.8125 -23.578125 C 1.8125 -29.035156 3.023438 -33.859375 5.453125 -38.046875 C 7.878906 -42.242188 11.238281 -45.503906 15.53125 -47.828125 C 19.175781 -49.742188 23.242188 -50.851562 27.734375 -51.15625 C 27.992188 -51.15625 28.257812 -51.164062 28.53125 -51.1875 C 28.8125 -51.21875 29.085938 -51.234375 29.359375 -51.234375 C 29.640625 -51.234375 29.910156 -51.234375 30.171875 -51.234375 C 32.898438 -51.234375 35.578125 -50.832031 38.203125 -50.03125 C 39.109375 -49.726562 39.976562 -49.382812 40.8125 -49 C 41.644531 -48.625 42.414062 -48.179688 43.125 -47.671875 C 43.832031 -47.171875 44.515625 -46.617188 45.171875 -46.015625 C 47.140625 -43.992188 48.125 -41.539062 48.125 -38.65625 C 48.125 -38 48.070312 -37.351562 47.96875 -36.71875 C 47.875 -36.09375 47.722656 -35.488281 47.515625 -34.90625 C 47.316406 -34.320312 47.066406 -33.765625 46.765625 -33.234375 C 46.460938 -32.703125 46.109375 -32.1875 45.703125 -31.6875 C 44.898438 -30.675781 43.925781 -29.90625 42.78125 -29.375 C 41.644531 -28.84375 40.394531 -28.578125 39.03125 -28.578125 C 38.582031 -28.578125 38.128906 -28.613281 37.671875 -28.6875 C 37.210938 -28.757812 36.769531 -28.867188 36.34375 -29.015625 C 35.914062 -29.171875 35.5 -29.351562 35.09375 -29.5625 C 34.382812 -29.914062 33.789062 -30.394531 33.3125 -31 C 32.832031 -31.601562 32.566406 -32.285156 32.515625 -33.046875 L 32.515625 -33.203125 C 32.515625 -33.703125 32.585938 -34.128906 32.734375 -34.484375 C 32.890625 -34.835938 33.066406 -35.050781 33.265625 -35.125 C 33.472656 -35.207031 33.691406 -35.285156 33.921875 -35.359375 C 34.148438 -35.429688 34.289062 -35.492188 34.34375 -35.546875 C 34.488281 -35.648438 34.632812 -35.773438 34.78125 -35.921875 C 34.9375 -36.078125 35.101562 -36.253906 35.28125 -36.453125 C 35.457031 -36.660156 35.625 -36.890625 35.78125 -37.140625 C 36.132812 -37.691406 36.3125 -38.375 36.3125 -39.1875 C 36.3125 -40.695312 35.726562 -41.910156 34.5625 -42.828125 C 33.195312 -43.890625 31.425781 -44.421875 29.25 -44.421875 C 28.851562 -44.421875 28.476562 -44.394531 28.125 -44.34375 C 25.84375 -44.1875 23.742188 -43.453125 21.828125 -42.140625 C 21.273438 -41.734375 20.757812 -41.300781 20.28125 -40.84375 C 19.800781 -40.394531 19.332031 -39.878906 18.875 -39.296875 C 18.414062 -38.710938 17.992188 -38.09375 17.609375 -37.4375 C 17.234375 -36.78125 16.875 -36.078125 16.53125 -35.328125 C 15.863281 -33.753906 15.351562 -32.03125 15 -30.15625 C 14.65625 -28.289062 14.484375 -26.25 14.484375 -24.03125 C 14.484375 -19.78125 15.140625 -16.140625 16.453125 -13.109375 C 17.765625 -10.179688 19.554688 -7.929688 21.828125 -6.359375 C 22.585938 -5.859375 23.394531 -5.441406 24.25 -5.109375 C 25.113281 -4.785156 26.007812 -4.535156 26.9375 -4.359375 C 27.875 -4.179688 28.847656 -4.09375 29.859375 -4.09375 C 30.617188 -4.09375 31.328125 -4.117188 31.984375 -4.171875 C 32.640625 -4.222656 33.25 -4.273438 33.8125 -4.328125 C 34.164062 -4.367188 34.554688 -4.441406 34.984375 -4.546875 C 35.410156 -4.648438 35.800781 -4.75 36.15625 -4.84375 L 36.15625 -11.140625 C 36.15625 -12.804688 36.101562 -13.941406 36 -14.546875 C 36 -14.597656 35.925781 -14.675781 35.78125 -14.78125 C 35.375 -14.976562 34.515625 -15.078125 33.203125 -15.078125 C 32.242188 -15.078125 31.484375 -15.28125 30.921875 -15.6875 C 30.160156 -16.195312 29.734375 -17.109375 29.640625 -18.421875 L 29.640625 -18.5625 C 29.640625 -19.476562 29.914062 -20.289062 30.46875 -21 C 31.125 -21.75 32.007812 -22.125 33.125 -22.125 L 33.203125 -22.125 C 36.378906 -21.976562 39.128906 -21.90625 41.453125 -21.90625 C 42.210938 -21.90625 43.007812 -21.914062 43.84375 -21.9375 C 44.675781 -21.96875 45.570312 -21.992188 46.53125 -22.015625 C 47.5 -22.046875 48.515625 -22.082031 49.578125 -22.125 L 49.640625 -22.125 C 50.703125 -22.125 51.5625 -21.722656 52.21875 -20.921875 C 52.726562 -20.265625 52.984375 -19.476562 52.984375 -18.5625 L 52.984375 -18.421875 C 52.984375 -18.117188 52.96875 -17.890625 52.9375 -17.734375 C 52.914062 -17.585938 52.863281 -17.375 52.78125 -17.09375 C 52.707031 -16.8125 52.582031 -16.554688 52.40625 -16.328125 C 52.226562 -16.109375 51.988281 -15.894531 51.6875 -15.6875 C 51.332031 -15.4375 50.976562 -15.269531 50.625 -15.1875 C 50.28125 -15.113281 49.878906 -15.078125 49.421875 -15.078125 C 48.304688 -15.078125 47.546875 -14.976562 47.140625 -14.78125 C 46.941406 -14.625 46.816406 -14.445312 46.765625 -14.25 C 46.765625 -14.09375 46.75 -13.875 46.71875 -13.59375 C 46.695312 -13.320312 46.671875 -12.972656 46.640625 -12.546875 C 46.617188 -12.117188 46.609375 -11.648438 46.609375 -11.140625 L 46.609375 -0.984375 L 45.546875 -0.453125 C 43.984375 0.253906 42.484375 0.859375 41.046875 1.359375 C 39.609375 1.867188 38.226562 2.273438 36.90625 2.578125 C 36.351562 2.679688 35.773438 2.78125 35.171875 2.875 C 32.898438 3.226562 30.25 3.40625 27.21875 3.40625 C 22.507812 3.40625 18.238281 2.421875 14.40625 0.453125 Z M 14.40625 0.453125 "/></g></g></g><g fill="#000000" fill-opacity="1"><g transform="translate(60.333298, 151.508226)"><g><path d="M 10.15625 0.078125 C 7.226562 -1.691406 5.003906 -4.144531 3.484375 -7.28125 C 1.972656 -10.3125 1.21875 -13.671875 1.21875 -17.359375 C 1.21875 -20.640625 1.972656 -23.796875 3.484375 -26.828125 C 5.054688 -29.859375 7.253906 -32.335938 10.078125 -34.265625 C 12.960938 -36.179688 16.273438 -37.140625 20.015625 -37.140625 C 25.015625 -37.140625 28.90625 -35.828125 31.6875 -33.203125 C 34.46875 -30.566406 36.054688 -27.050781 36.453125 -22.65625 L 36.453125 -22.515625 C 36.453125 -20.191406 35.722656 -18.523438 34.265625 -17.515625 C 33.046875 -16.703125 31.375 -16.296875 29.25 -16.296875 L 12.8125 -16.296875 C 13.007812 -12.859375 13.84375 -10.128906 15.3125 -8.109375 C 16.875 -5.890625 19.375 -4.78125 22.8125 -4.78125 C 23.164062 -4.78125 23.519531 -4.789062 23.875 -4.8125 C 24.226562 -4.832031 24.566406 -4.878906 24.890625 -4.953125 C 25.222656 -5.035156 25.523438 -5.113281 25.796875 -5.1875 C 26.078125 -5.269531 26.34375 -5.375 26.59375 -5.5 C 26.851562 -5.625 27.109375 -5.757812 27.359375 -5.90625 C 28.617188 -6.664062 29.859375 -8.03125 31.078125 -10 L 31.15625 -10.234375 L 31.296875 -10.390625 C 31.609375 -10.640625 31.9375 -10.851562 32.28125 -11.03125 C 32.632812 -11.207031 33.015625 -11.296875 33.421875 -11.296875 C 33.578125 -11.296875 33.753906 -11.269531 33.953125 -11.21875 C 34.160156 -11.164062 34.351562 -11.113281 34.53125 -11.0625 C 34.707031 -11.007812 34.867188 -10.945312 35.015625 -10.875 C 35.171875 -10.800781 35.296875 -10.738281 35.390625 -10.6875 C 36.453125 -9.976562 36.984375 -8.992188 36.984375 -7.734375 C 36.984375 -7.429688 36.945312 -7.140625 36.875 -6.859375 C 36.800781 -6.578125 36.6875 -6.285156 36.53125 -5.984375 C 35.675781 -4.671875 34.691406 -3.457031 33.578125 -2.34375 C 32.460938 -1.238281 31.25 -0.304688 29.9375 0.453125 C 27.257812 2.015625 24.226562 2.796875 20.84375 2.796875 C 16.695312 2.796875 13.132812 1.890625 10.15625 0.078125 Z M 23.1875 -22.96875 C 24.101562 -22.96875 24.6875 -23.066406 24.9375 -23.265625 C 25.1875 -23.472656 25.335938 -23.828125 25.390625 -24.328125 C 25.390625 -24.628906 25.375 -24.90625 25.34375 -25.15625 C 25.320312 -25.414062 25.285156 -25.671875 25.234375 -25.921875 C 25.191406 -26.171875 25.144531 -26.410156 25.09375 -26.640625 C 25.039062 -26.867188 24.972656 -27.082031 24.890625 -27.28125 C 24.816406 -27.488281 24.726562 -27.691406 24.625 -27.890625 C 24.53125 -28.097656 24.421875 -28.289062 24.296875 -28.46875 C 24.171875 -28.644531 24.03125 -28.832031 23.875 -29.03125 C 23.414062 -29.582031 22.882812 -30 22.28125 -30.28125 C 21.675781 -30.5625 20.921875 -30.703125 20.015625 -30.703125 C 18.035156 -30.703125 16.390625 -29.914062 15.078125 -28.34375 C 14.015625 -26.976562 13.3125 -25.1875 12.96875 -22.96875 Z M 23.1875 -22.96875 "/></g></g></g><g fill="#000000" fill-opacity="1"><g transform="translate(98.379361, 151.508226)"><g><path d="M 1.359375 0.90625 C 0.859375 0.25 0.609375 -0.476562 0.609375 -1.28125 L 0.609375 -1.4375 C 0.609375 -1.4375 0.609375 -1.460938 0.609375 -1.515625 C 0.710938 -2.828125 1.21875 -3.710938 2.125 -4.171875 C 2.625 -4.421875 3.359375 -4.546875 4.328125 -4.546875 C 5.179688 -4.546875 5.707031 -4.625 5.90625 -4.78125 C 6.0625 -4.925781 6.164062 -5.050781 6.21875 -5.15625 C 6.269531 -5.707031 6.296875 -6.59375 6.296875 -7.8125 L 6.296875 -25.171875 C 6.296875 -26.378906 6.269531 -27.257812 6.21875 -27.8125 C 6.164062 -27.914062 6.0625 -28.046875 5.90625 -28.203125 C 5.707031 -28.347656 5.179688 -28.421875 4.328125 -28.421875 C 3.359375 -28.421875 2.570312 -28.597656 1.96875 -28.953125 C 1.0625 -29.503906 0.609375 -30.460938 0.609375 -31.828125 C 0.609375 -32.535156 0.832031 -33.195312 1.28125 -33.8125 C 1.789062 -34.507812 2.523438 -34.9375 3.484375 -35.09375 C 5.003906 -35.289062 6.421875 -35.550781 7.734375 -35.875 C 9.046875 -36.207031 10.179688 -36.550781 11.140625 -36.90625 L 11.21875 -36.984375 L 11.296875 -36.984375 C 12.203125 -37.242188 12.859375 -37.421875 13.265625 -37.515625 L 13.796875 -37.515625 C 14.703125 -37.515625 15.445312 -37.171875 16.03125 -36.484375 C 16.613281 -35.804688 16.90625 -35.039062 16.90625 -34.1875 L 16.90625 -33.421875 C 16.957031 -33.472656 17.019531 -33.523438 17.09375 -33.578125 C 17.164062 -33.628906 17.226562 -33.679688 17.28125 -33.734375 C 17.332031 -33.785156 17.382812 -33.832031 17.4375 -33.875 C 17.488281 -33.925781 17.535156 -33.976562 17.578125 -34.03125 C 17.984375 -34.332031 18.398438 -34.609375 18.828125 -34.859375 C 19.265625 -35.117188 19.707031 -35.359375 20.15625 -35.578125 C 20.613281 -35.804688 21.117188 -36.023438 21.671875 -36.234375 C 22.484375 -36.535156 23.378906 -36.757812 24.359375 -36.90625 C 25.347656 -37.0625 26.375 -37.140625 27.4375 -37.140625 C 31.425781 -37.140625 34.609375 -35.898438 36.984375 -33.421875 C 39.359375 -30.992188 40.546875 -27.835938 40.546875 -23.953125 L 40.546875 -7.8125 C 40.546875 -7.195312 40.554688 -6.660156 40.578125 -6.203125 C 40.609375 -5.753906 40.648438 -5.429688 40.703125 -5.234375 L 41 -4.78125 C 41.207031 -4.625 41.738281 -4.546875 42.59375 -4.546875 L 43.046875 -4.546875 C 43.859375 -4.546875 44.539062 -4.34375 45.09375 -3.9375 C 45.394531 -3.6875 45.632812 -3.382812 45.8125 -3.03125 C 45.988281 -2.675781 46.085938 -2.421875 46.109375 -2.265625 C 46.140625 -2.117188 46.179688 -1.84375 46.234375 -1.4375 L 46.234375 -1.28125 C 46.234375 -0.476562 45.984375 0.25 45.484375 0.90625 C 44.867188 1.71875 44.082031 2.125 43.125 2.125 L 43.046875 2.125 C 41.585938 2.019531 40.195312 1.953125 38.875 1.921875 C 37.5625 1.898438 36.328125 1.890625 35.171875 1.890625 C 34.054688 1.890625 32.84375 1.898438 31.53125 1.921875 C 30.21875 1.953125 28.828125 2.019531 27.359375 2.125 L 27.28125 2.125 C 26.320312 2.125 25.515625 1.71875 24.859375 0.90625 C 24.398438 0.25 24.171875 -0.476562 24.171875 -1.28125 L 24.171875 -1.4375 C 24.273438 -2.75 24.734375 -3.632812 25.546875 -4.09375 C 26.097656 -4.394531 26.851562 -4.546875 27.8125 -4.546875 C 28.164062 -4.546875 28.46875 -4.570312 28.71875 -4.625 C 28.976562 -4.675781 29.15625 -4.710938 29.25 -4.734375 C 29.351562 -4.765625 29.40625 -4.78125 29.40625 -4.78125 C 29.613281 -4.976562 29.71875 -5.128906 29.71875 -5.234375 C 29.8125 -5.734375 29.859375 -6.59375 29.859375 -7.8125 L 29.859375 -23.875 C 29.859375 -25.59375 29.351562 -26.878906 28.34375 -27.734375 C 27.238281 -28.703125 25.953125 -29.1875 24.484375 -29.1875 C 23.617188 -29.1875 22.832031 -29.097656 22.125 -28.921875 C 21.425781 -28.742188 20.769531 -28.503906 20.15625 -28.203125 C 20.0625 -28.148438 19.988281 -28.097656 19.9375 -28.046875 C 19.882812 -27.992188 19.816406 -27.953125 19.734375 -27.921875 C 19.660156 -27.898438 19.601562 -27.863281 19.5625 -27.8125 C 18.34375 -27.007812 17.484375 -26.175781 16.984375 -25.3125 L 16.984375 -7.8125 C 16.984375 -6.59375 17.03125 -5.734375 17.125 -5.234375 C 17.125 -5.128906 17.226562 -4.976562 17.4375 -4.78125 C 17.4375 -4.78125 17.484375 -4.765625 17.578125 -4.734375 C 17.679688 -4.710938 17.859375 -4.675781 18.109375 -4.625 C 18.367188 -4.570312 18.675781 -4.546875 19.03125 -4.546875 L 19.484375 -4.546875 C 20.285156 -4.546875 20.96875 -4.34375 21.53125 -3.9375 C 22.1875 -3.4375 22.5625 -2.601562 22.65625 -1.4375 L 22.65625 -1.28125 C 22.65625 -1.082031 22.644531 -0.894531 22.625 -0.71875 C 22.601562 -0.539062 22.566406 -0.363281 22.515625 -0.1875 C 22.460938 -0.0078125 22.394531 0.164062 22.3125 0.34375 C 22.238281 0.519531 22.15625 0.679688 22.0625 0.828125 C 21.851562 1.085938 21.609375 1.316406 21.328125 1.515625 C 21.054688 1.710938 20.769531 1.863281 20.46875 1.96875 C 20.164062 2.070312 19.863281 2.125 19.5625 2.125 L 19.484375 2.125 C 16.546875 1.96875 13.914062 1.890625 11.59375 1.890625 C 10.476562 1.890625 9.265625 1.898438 7.953125 1.921875 C 6.640625 1.953125 5.253906 2.019531 3.796875 2.125 L 3.71875 2.125 C 2.757812 2.125 1.972656 1.71875 1.359375 0.90625 Z M 1.359375 0.90625 "/></g></g></g><g fill="#000000" fill-opacity="1"><g transform="translate(143.776961, 151.508226)"><g><path d="M 10.15625 0.078125 C 7.226562 -1.691406 5.003906 -4.144531 3.484375 -7.28125 C 1.972656 -10.3125 1.21875 -13.671875 1.21875 -17.359375 C 1.21875 -20.640625 1.972656 -23.796875 3.484375 -26.828125 C 5.054688 -29.859375 7.253906 -32.335938 10.078125 -34.265625 C 12.960938 -36.179688 16.273438 -37.140625 20.015625 -37.140625 C 25.015625 -37.140625 28.90625 -35.828125 31.6875 -33.203125 C 34.46875 -30.566406 36.054688 -27.050781 36.453125 -22.65625 L 36.453125 -22.515625 C 36.453125 -20.191406 35.722656 -18.523438 34.265625 -17.515625 C 33.046875 -16.703125 31.375 -16.296875 29.25 -16.296875 L 12.8125 -16.296875 C 13.007812 -12.859375 13.84375 -10.128906 15.3125 -8.109375 C 16.875 -5.890625 19.375 -4.78125 22.8125 -4.78125 C 23.164062 -4.78125 23.519531 -4.789062 23.875 -4.8125 C 24.226562 -4.832031 24.566406 -4.878906 24.890625 -4.953125 C 25.222656 -5.035156 25.523438 -5.113281 25.796875 -5.1875 C 26.078125 -5.269531 26.34375 -5.375 26.59375 -5.5 C 26.851562 -5.625 27.109375 -5.757812 27.359375 -5.90625 C 28.617188 -6.664062 29.859375 -8.03125 31.078125 -10 L 31.15625 -10.234375 L 31.296875 -10.390625 C 31.609375 -10.640625 31.9375 -10.851562 32.28125 -11.03125 C 32.632812 -11.207031 33.015625 -11.296875 33.421875 -11.296875 C 33.578125 -11.296875 33.753906 -11.269531 33.953125 -11.21875 C 34.160156 -11.164062 34.351562 -11.113281 34.53125 -11.0625 C 34.707031 -11.007812 34.867188 -10.945312 35.015625 -10.875 C 35.171875 -10.800781 35.296875 -10.738281 35.390625 -10.6875 C 36.453125 -9.976562 36.984375 -8.992188 36.984375 -7.734375 C 36.984375 -7.429688 36.945312 -7.140625 36.875 -6.859375 C 36.800781 -6.578125 36.6875 -6.285156 36.53125 -5.984375 C 35.675781 -4.671875 34.691406 -3.457031 33.578125 -2.34375 C 32.460938 -1.238281 31.25 -0.304688 29.9375 0.453125 C 27.257812 2.015625 24.226562 2.796875 20.84375 2.796875 C 16.695312 2.796875 13.132812 1.890625 10.15625 0.078125 Z M 23.1875 -22.96875 C 24.101562 -22.96875 24.6875 -23.066406 24.9375 -23.265625 C 25.1875 -23.472656 25.335938 -23.828125 25.390625 -24.328125 C 25.390625 -24.628906 25.375 -24.90625 25.34375 -25.15625 C 25.320312 -25.414062 25.285156 -25.671875 25.234375 -25.921875 C 25.191406 -26.171875 25.144531 -26.410156 25.09375 -26.640625 C 25.039062 -26.867188 24.972656 -27.082031 24.890625 -27.28125 C 24.816406 -27.488281 24.726562 -27.691406 24.625 -27.890625 C 24.53125 -28.097656 24.421875 -28.289062 24.296875 -28.46875 C 24.171875 -28.644531 24.03125 -28.832031 23.875 -29.03125 C 23.414062 -29.582031 22.882812 -30 22.28125 -30.28125 C 21.675781 -30.5625 20.921875 -30.703125 20.015625 -30.703125 C 18.035156 -30.703125 16.390625 -29.914062 15.078125 -28.34375 C 14.015625 -26.976562 13.3125 -25.1875 12.96875 -22.96875 Z M 23.1875 -22.96875 "/></g></g></g><g fill="#000000" fill-opacity="1"><g transform="translate(181.823024, 151.508226)"><g><path d="M 4.09375 -0.296875 C 1.820312 -2.367188 0.6875 -4.972656 0.6875 -8.109375 C 0.6875 -11.953125 2 -14.859375 4.625 -16.828125 C 7 -18.597656 9.800781 -19.734375 13.03125 -20.234375 C 15.613281 -20.691406 18.875 -21.046875 22.8125 -21.296875 L 22.8125 -25.46875 C 22.8125 -26.53125 22.695312 -27.398438 22.46875 -28.078125 C 22.238281 -28.765625 21.898438 -29.332031 21.453125 -29.78125 C 21.097656 -30.1875 20.539062 -30.515625 19.78125 -30.765625 C 19.019531 -31.023438 18.0625 -31.15625 16.90625 -31.15625 C 16.5 -31.15625 16.128906 -31.113281 15.796875 -31.03125 C 15.472656 -30.957031 15.160156 -30.84375 14.859375 -30.6875 C 14.554688 -30.539062 14.273438 -30.367188 14.015625 -30.171875 C 13.660156 -29.867188 13.394531 -29.523438 13.21875 -29.140625 C 13.050781 -28.765625 12.96875 -28.296875 12.96875 -27.734375 C 12.96875 -27.335938 13.039062 -27.035156 13.1875 -26.828125 C 13.4375 -26.421875 13.710938 -26.09375 14.015625 -25.84375 C 14.066406 -25.84375 14.179688 -25.816406 14.359375 -25.765625 C 14.535156 -25.710938 14.6875 -25.632812 14.8125 -25.53125 C 14.9375 -25.4375 15.0625 -25.238281 15.1875 -24.9375 C 15.320312 -24.632812 15.390625 -24.253906 15.390625 -23.796875 C 15.390625 -23.347656 15.273438 -22.921875 15.046875 -22.515625 C 14.816406 -22.109375 14.625 -21.84375 14.46875 -21.71875 C 14.320312 -21.59375 14.070312 -21.398438 13.71875 -21.140625 C 12.707031 -20.390625 11.546875 -20.015625 10.234375 -20.015625 C 8.109375 -20.015625 6.414062 -20.796875 5.15625 -22.359375 C 3.988281 -23.828125 3.40625 -25.546875 3.40625 -27.515625 C 3.40625 -30.898438 4.921875 -33.398438 7.953125 -35.015625 C 10.585938 -36.429688 13.722656 -37.140625 17.359375 -37.140625 C 18.828125 -37.140625 20.21875 -37.050781 21.53125 -36.875 C 22.84375 -36.695312 24.078125 -36.40625 25.234375 -36 C 26.398438 -35.59375 27.460938 -35.085938 28.421875 -34.484375 C 29.535156 -33.828125 30.457031 -32.976562 31.1875 -31.9375 C 31.925781 -30.90625 32.457031 -29.742188 32.78125 -28.453125 C 33.113281 -27.171875 33.28125 -25.742188 33.28125 -24.171875 L 33.28125 -6.59375 C 33.28125 -6.394531 33.289062 -6.207031 33.3125 -6.03125 C 33.332031 -5.851562 33.378906 -5.6875 33.453125 -5.53125 C 33.535156 -5.382812 33.613281 -5.222656 33.6875 -5.046875 C 33.769531 -4.867188 33.859375 -4.675781 33.953125 -4.46875 C 34.109375 -4.269531 34.273438 -4.128906 34.453125 -4.046875 C 34.628906 -3.972656 34.921875 -3.9375 35.328125 -3.9375 C 36.179688 -3.9375 36.882812 -3.710938 37.4375 -3.265625 C 38.050781 -2.703125 38.359375 -1.890625 38.359375 -0.828125 C 38.359375 0.734375 37.445312 1.769531 35.625 2.28125 C 34.507812 2.625 33.398438 2.796875 32.296875 2.796875 C 29.960938 2.796875 27.890625 2.117188 26.078125 0.765625 C 25.265625 0.148438 24.609375 -0.554688 24.109375 -1.359375 C 23.847656 -1.109375 23.578125 -0.867188 23.296875 -0.640625 C 23.023438 -0.410156 22.75 -0.195312 22.46875 0 C 22.195312 0.195312 21.90625 0.375 21.59375 0.53125 C 21.289062 0.6875 20.960938 0.863281 20.609375 1.0625 C 18.191406 2.21875 15.566406 2.796875 12.734375 2.796875 C 9.191406 2.796875 6.3125 1.765625 4.09375 -0.296875 Z M 18.953125 -6.140625 C 19.253906 -6.285156 19.539062 -6.457031 19.8125 -6.65625 C 20.09375 -6.863281 20.347656 -7.082031 20.578125 -7.3125 C 20.804688 -7.539062 21.019531 -7.789062 21.21875 -8.0625 C 21.425781 -8.34375 21.601562 -8.632812 21.75 -8.9375 C 22.457031 -10.15625 22.8125 -11.5 22.8125 -12.96875 L 22.8125 -15.234375 C 18.875 -14.773438 16.097656 -14.066406 14.484375 -13.109375 C 12.910156 -12.148438 12.125 -10.5625 12.125 -8.34375 C 12.125 -7.019531 12.335938 -6.144531 12.765625 -5.71875 C 13.203125 -5.289062 14 -5.078125 15.15625 -5.078125 C 15.863281 -5.078125 16.53125 -5.164062 17.15625 -5.34375 C 17.789062 -5.519531 18.390625 -5.785156 18.953125 -6.140625 Z M 18.953125 -6.140625 "/></g></g></g><g fill="#000000" fill-opacity="1"><g transform="translate(219.793301, 151.508226)"><g><path d="M 0.609375 0.90625 C 0.0976562 0.25 -0.15625 -0.476562 -0.15625 -1.28125 L -0.15625 -1.4375 C -0.0507812 -2.75 0.40625 -3.632812 1.21875 -4.09375 C 1.769531 -4.394531 2.523438 -4.546875 3.484375 -4.546875 C 4.347656 -4.546875 4.878906 -4.625 5.078125 -4.78125 C 5.273438 -4.976562 5.375 -5.128906 5.375 -5.234375 C 5.476562 -5.734375 5.53125 -6.59375 5.53125 -7.8125 L 5.53125 -44.796875 C 5.53125 -45.398438 5.515625 -45.925781 5.484375 -46.375 C 5.460938 -46.832031 5.453125 -47.191406 5.453125 -47.453125 L 5.15625 -47.828125 C 4.945312 -47.984375 4.414062 -48.0625 3.5625 -48.0625 C 2.601562 -48.0625 1.820312 -48.234375 1.21875 -48.578125 C 0.300781 -49.140625 -0.15625 -50.101562 -0.15625 -51.46875 C -0.15625 -52.175781 0.0703125 -52.832031 0.53125 -53.4375 C 1.03125 -54.144531 1.765625 -54.570312 2.734375 -54.71875 C 5.765625 -55.125 8.335938 -55.734375 10.453125 -56.546875 C 10.910156 -56.742188 11.316406 -56.878906 11.671875 -56.953125 C 12.023438 -57.035156 12.351562 -57.101562 12.65625 -57.15625 L 13.109375 -57.15625 C 14.023438 -57.15625 14.769531 -56.8125 15.34375 -56.125 C 15.925781 -55.445312 16.21875 -54.675781 16.21875 -53.8125 L 16.21875 -7.8125 C 16.21875 -6.59375 16.269531 -5.734375 16.375 -5.234375 L 16.671875 -4.78125 C 16.671875 -4.78125 16.722656 -4.765625 16.828125 -4.734375 C 16.929688 -4.710938 17.109375 -4.675781 17.359375 -4.625 C 17.609375 -4.570312 17.910156 -4.546875 18.265625 -4.546875 L 18.71875 -4.546875 C 19.53125 -4.546875 20.210938 -4.34375 20.765625 -3.9375 C 21.421875 -3.4375 21.800781 -2.601562 21.90625 -1.4375 L 21.90625 -1.28125 C 21.90625 -1.1875 21.90625 -1.085938 21.90625 -0.984375 C 21.90625 -0.878906 21.890625 -0.773438 21.859375 -0.671875 C 21.835938 -0.578125 21.8125 -0.476562 21.78125 -0.375 C 21.757812 -0.28125 21.734375 -0.179688 21.703125 -0.078125 C 21.679688 0.0234375 21.644531 0.125 21.59375 0.21875 C 21.550781 0.320312 21.503906 0.425781 21.453125 0.53125 C 21.398438 0.632812 21.347656 0.734375 21.296875 0.828125 C 21.097656 1.085938 20.859375 1.316406 20.578125 1.515625 C 20.296875 1.710938 20.003906 1.863281 19.703125 1.96875 C 19.398438 2.070312 19.097656 2.125 18.796875 2.125 L 18.71875 2.125 C 15.789062 1.96875 13.164062 1.890625 10.84375 1.890625 C 9.726562 1.890625 8.515625 1.898438 7.203125 1.921875 C 5.890625 1.953125 4.5 2.019531 3.03125 2.125 L 2.953125 2.125 C 1.941406 2.125 1.160156 1.71875 0.609375 0.90625 Z M 0.609375 0.90625 "/></g></g></g><g fill="#000000" fill-opacity="1"><g transform="translate(241.468935, 151.508226)"><g><path d="M 10.609375 0.078125 C 9.847656 -0.378906 9.140625 -0.875 8.484375 -1.40625 C 7.828125 -1.9375 7.207031 -2.503906 6.625 -3.109375 C 6.050781 -3.710938 5.523438 -4.351562 5.046875 -5.03125 C 4.566406 -5.71875 4.125 -6.414062 3.71875 -7.125 C 2.050781 -10.15625 1.21875 -13.335938 1.21875 -16.671875 C 1.21875 -20.816406 2.203125 -24.457031 4.171875 -27.59375 C 6.085938 -30.675781 8.5625 -33.035156 11.59375 -34.671875 C 14.625 -36.316406 17.679688 -37.140625 20.765625 -37.140625 C 22.640625 -37.140625 24.4375 -36.910156 26.15625 -36.453125 C 27.875 -36.003906 29.460938 -35.320312 30.921875 -34.40625 C 33.898438 -32.59375 36.210938 -30.179688 37.859375 -27.171875 C 39.503906 -24.160156 40.328125 -20.988281 40.328125 -17.65625 C 40.328125 -13.519531 39.34375 -9.882812 37.375 -6.75 C 35.394531 -3.664062 32.890625 -1.304688 29.859375 0.328125 C 26.828125 1.972656 23.796875 2.796875 20.765625 2.796875 C 16.972656 2.796875 13.585938 1.890625 10.609375 0.078125 Z M 26.6875 -7.203125 C 26.9375 -7.703125 27.171875 -8.242188 27.390625 -8.828125 C 27.617188 -9.410156 27.820312 -10.03125 28 -10.6875 C 28.175781 -11.34375 28.328125 -12.035156 28.453125 -12.765625 C 28.585938 -13.503906 28.675781 -14.289062 28.71875 -15.125 C 28.769531 -15.957031 28.796875 -16.800781 28.796875 -17.65625 C 28.796875 -21.65625 28.066406 -24.890625 26.609375 -27.359375 C 25.335938 -29.484375 23.390625 -30.546875 20.765625 -30.546875 C 19.296875 -30.546875 18.09375 -30.28125 17.15625 -29.75 C 16.226562 -29.21875 15.460938 -28.375 14.859375 -27.21875 C 14.398438 -26.351562 14.019531 -25.398438 13.71875 -24.359375 C 13.414062 -23.328125 13.175781 -22.179688 13 -20.921875 C 12.820312 -19.660156 12.734375 -18.296875 12.734375 -16.828125 C 12.734375 -12.835938 13.46875 -9.578125 14.9375 -7.046875 C 15.59375 -5.929688 16.375 -5.109375 17.28125 -4.578125 C 18.1875 -4.054688 19.347656 -3.796875 20.765625 -3.796875 C 21.722656 -3.796875 22.554688 -3.921875 23.265625 -4.171875 C 23.972656 -4.421875 24.601562 -4.785156 25.15625 -5.265625 C 25.71875 -5.742188 26.226562 -6.390625 26.6875 -7.203125 Z M 16.375 -40.328125 C 16.21875 -40.578125 16.101562 -40.863281 16.03125 -41.1875 C 15.957031 -41.519531 15.921875 -41.835938 15.921875 -42.140625 C 15.921875 -42.492188 15.96875 -42.832031 16.0625 -43.15625 C 16.164062 -43.488281 16.296875 -43.78125 16.453125 -44.03125 L 22.125 -54.34375 C 23.039062 -56.21875 24.507812 -57.15625 26.53125 -57.15625 C 26.78125 -57.15625 27.03125 -57.128906 27.28125 -57.078125 C 27.539062 -57.023438 27.769531 -56.957031 27.96875 -56.875 C 28.164062 -56.800781 28.414062 -56.71875 28.71875 -56.625 L 28.796875 -56.625 L 28.875 -56.546875 C 29.125 -56.390625 29.375 -56.222656 29.625 -56.046875 C 29.882812 -55.867188 30.113281 -55.664062 30.3125 -55.4375 C 30.519531 -55.21875 30.695312 -54.976562 30.84375 -54.71875 C 31.144531 -54.320312 31.367188 -53.894531 31.515625 -53.4375 C 31.671875 -52.976562 31.75 -52.523438 31.75 -52.078125 C 31.75 -51.015625 31.375 -50.023438 30.625 -49.109375 L 22.890625 -40.015625 C 22.429688 -39.566406 21.925781 -39.203125 21.375 -38.921875 C 20.820312 -38.640625 20.238281 -38.5 19.625 -38.5 C 19.019531 -38.5 18.414062 -38.648438 17.8125 -38.953125 C 17.207031 -39.210938 16.726562 -39.671875 16.375 -40.328125 Z M 16.375 -40.328125 "/></g></g></g><g fill="#000000" fill-opacity="1"><g transform="translate(283.001292, 151.508226)"><g><path d="M 13.265625 1.8125 C 13.367188 1.96875 13.441406 2.09375 13.484375 2.1875 C 13.535156 2.289062 13.597656 2.457031 13.671875 2.6875 C 13.753906 2.914062 13.796875 3.128906 13.796875 3.328125 C 13.796875 3.785156 13.742188 4.148438 13.640625 4.421875 C 13.535156 4.703125 13.421875 4.878906 13.296875 4.953125 C 13.171875 5.035156 13.03125 5.113281 12.875 5.1875 C 12.726562 5.269531 12.628906 5.332031 12.578125 5.375 C 12.273438 5.6875 12.023438 6.066406 11.828125 6.515625 C 11.617188 6.867188 11.515625 7.328125 11.515625 7.890625 C 11.515625 10.515625 14.21875 11.828125 19.625 11.828125 C 20.03125 11.828125 20.421875 11.8125 20.796875 11.78125 C 21.179688 11.757812 21.550781 11.75 21.90625 11.75 C 24.28125 11.550781 26.125 11.019531 27.4375 10.15625 C 28.957031 9.144531 29.71875 7.679688 29.71875 5.765625 C 29.71875 5.554688 29.703125 5.363281 29.671875 5.1875 C 29.648438 5.007812 29.613281 4.84375 29.5625 4.6875 C 29.507812 4.539062 29.441406 4.40625 29.359375 4.28125 C 29.285156 4.15625 29.195312 4.050781 29.09375 3.96875 C 29 3.894531 28.878906 3.8125 28.734375 3.71875 C 28.273438 3.414062 27.726562 3.148438 27.09375 2.921875 C 26.46875 2.691406 25.773438 2.523438 25.015625 2.421875 C 24.554688 2.367188 24.070312 2.332031 23.5625 2.3125 C 23.0625 2.289062 22.53125 2.253906 21.96875 2.203125 C 21.414062 2.148438 20.8125 2.109375 20.15625 2.078125 C 19.5 2.054688 18.796875 2.046875 18.046875 2.046875 C 16.222656 1.992188 14.628906 1.914062 13.265625 1.8125 Z M 5.234375 -0.375 C 5.023438 -0.53125 4.820312 -0.679688 4.625 -0.828125 C 3.101562 -2.097656 2.34375 -3.992188 2.34375 -6.515625 C 2.34375 -9.046875 3.226562 -11.171875 5 -12.890625 C 5.5625 -13.390625 6.191406 -13.84375 6.890625 -14.25 C 6.390625 -14.601562 5.9375 -14.992188 5.53125 -15.421875 C 5.125 -15.847656 4.742188 -16.289062 4.390625 -16.75 C 2.984375 -18.820312 2.28125 -21.144531 2.28125 -23.71875 C 2.28125 -26.300781 3.007812 -28.628906 4.46875 -30.703125 C 5.175781 -31.765625 6.035156 -32.695312 7.046875 -33.5 C 8.054688 -34.3125 9.191406 -34.992188 10.453125 -35.546875 C 12.929688 -36.660156 15.710938 -37.21875 18.796875 -37.21875 C 22.378906 -37.21875 25.257812 -36.738281 27.4375 -35.78125 L 30.46875 -36.375 L 37.21875 -37.671875 L 37.75 -37.671875 C 38.757812 -37.671875 39.539062 -37.28125 40.09375 -36.5 C 40.65625 -35.71875 40.9375 -34.867188 40.9375 -33.953125 C 40.9375 -33.703125 40.921875 -33.472656 40.890625 -33.265625 C 40.867188 -33.066406 40.84375 -32.851562 40.8125 -32.625 C 40.789062 -32.40625 40.738281 -32.179688 40.65625 -31.953125 C 40.582031 -31.722656 40.519531 -31.503906 40.46875 -31.296875 C 40.320312 -30.953125 40.1875 -30.664062 40.0625 -30.4375 C 39.9375 -30.207031 39.671875 -29.941406 39.265625 -29.640625 C 38.859375 -29.335938 38.378906 -29.1875 37.828125 -29.1875 L 33.953125 -29.328125 C 34.109375 -29.078125 34.238281 -28.828125 34.34375 -28.578125 C 35.039062 -26.910156 35.390625 -25.316406 35.390625 -23.796875 C 35.390625 -21.066406 34.609375 -18.644531 33.046875 -16.53125 C 32.234375 -15.46875 31.320312 -14.539062 30.3125 -13.75 C 29.300781 -12.96875 28.191406 -12.300781 26.984375 -11.75 C 24.554688 -10.6875 22.03125 -10.15625 19.40625 -10.15625 L 16.0625 -10.15625 C 14.195312 -10.15625 12.757812 -10.03125 11.75 -9.78125 C 11.5 -9.675781 11.269531 -9.597656 11.0625 -9.546875 C 10.65625 -9.347656 10.453125 -9.097656 10.453125 -8.796875 C 10.453125 -8.492188 10.503906 -8.316406 10.609375 -8.265625 C 10.960938 -8.015625 11.769531 -7.835938 13.03125 -7.734375 L 23.421875 -7.359375 C 29.078125 -7.148438 33.222656 -6.210938 35.859375 -4.546875 C 38.785156 -2.679688 40.25 0.117188 40.25 3.859375 C 40.25 8.515625 38.101562 12.15625 33.8125 14.78125 C 32.34375 15.632812 30.734375 16.335938 28.984375 16.890625 C 27.242188 17.453125 25.335938 17.859375 23.265625 18.109375 C 22.460938 18.210938 21.617188 18.289062 20.734375 18.34375 C 19.847656 18.394531 18.953125 18.421875 18.046875 18.421875 C 12.429688 18.421875 8.046875 17.519531 4.890625 15.71875 C 1.734375 13.925781 0.15625 11.160156 0.15625 7.421875 C 0.15625 5.253906 0.863281 3.363281 2.28125 1.75 C 2.675781 1.238281 3.125 0.804688 3.625 0.453125 C 4.132812 0.0976562 4.671875 -0.175781 5.234375 -0.375 Z M 23.046875 -18.046875 C 23.453125 -18.441406 23.78125 -18.914062 24.03125 -19.46875 C 24.28125 -20.03125 24.46875 -20.675781 24.59375 -21.40625 C 24.71875 -22.144531 24.78125 -22.941406 24.78125 -23.796875 C 24.78125 -26.078125 24.203125 -27.875 23.046875 -29.1875 C 21.929688 -30.445312 20.488281 -31.078125 18.71875 -31.078125 C 18.113281 -31.078125 17.554688 -31.015625 17.046875 -30.890625 C 16.546875 -30.765625 16.09375 -30.5625 15.6875 -30.28125 C 15.28125 -30 14.890625 -29.65625 14.515625 -29.25 C 14.140625 -28.851562 13.820312 -28.398438 13.5625 -27.890625 C 13.3125 -27.390625 13.125 -26.8125 13 -26.15625 C 12.875 -25.5 12.8125 -24.765625 12.8125 -23.953125 C 12.8125 -21.378906 13.390625 -19.410156 14.546875 -18.046875 C 15.660156 -16.773438 17.078125 -16.140625 18.796875 -16.140625 C 20.566406 -16.140625 21.984375 -16.773438 23.046875 -18.046875 Z M 23.046875 -18.046875 "/></g></g></g><g fill="#000000" fill-opacity="1"><g transform="translate(322.63893, 151.508226)"><g><path d="M 1.359375 0.90625 C 0.859375 0.25 0.609375 -0.476562 0.609375 -1.28125 L 0.609375 -1.4375 C 0.609375 -1.4375 0.609375 -1.460938 0.609375 -1.515625 C 0.710938 -2.828125 1.21875 -3.710938 2.125 -4.171875 C 2.625 -4.421875 3.359375 -4.546875 4.328125 -4.546875 C 5.179688 -4.546875 5.707031 -4.625 5.90625 -4.78125 C 6.0625 -4.925781 6.164062 -5.050781 6.21875 -5.15625 C 6.269531 -5.707031 6.296875 -6.59375 6.296875 -7.8125 L 6.296875 -25.171875 C 6.296875 -26.378906 6.269531 -27.257812 6.21875 -27.8125 C 6.164062 -27.914062 6.0625 -28.046875 5.90625 -28.203125 C 5.707031 -28.347656 5.179688 -28.421875 4.328125 -28.421875 C 3.359375 -28.421875 2.570312 -28.597656 1.96875 -28.953125 C 1.0625 -29.503906 0.609375 -30.460938 0.609375 -31.828125 C 0.609375 -32.535156 0.832031 -33.195312 1.28125 -33.8125 C 1.539062 -34.164062 1.867188 -34.453125 2.265625 -34.671875 C 2.671875 -34.898438 3.078125 -35.039062 3.484375 -35.09375 C 6.515625 -35.5 9.09375 -36.101562 11.21875 -36.90625 C 11.675781 -37.113281 12.082031 -37.253906 12.4375 -37.328125 C 12.789062 -37.398438 13.117188 -37.460938 13.421875 -37.515625 L 13.875 -37.515625 C 14.78125 -37.515625 15.523438 -37.171875 16.109375 -36.484375 C 16.691406 -35.804688 16.984375 -35.039062 16.984375 -34.1875 L 16.984375 -7.8125 C 16.984375 -6.59375 17.03125 -5.734375 17.125 -5.234375 C 17.125 -5.128906 17.226562 -4.976562 17.4375 -4.78125 C 17.4375 -4.78125 17.484375 -4.765625 17.578125 -4.734375 C 17.679688 -4.710938 17.859375 -4.675781 18.109375 -4.625 C 18.367188 -4.570312 18.675781 -4.546875 19.03125 -4.546875 L 19.484375 -4.546875 C 20.285156 -4.546875 20.96875 -4.34375 21.53125 -3.9375 C 22.1875 -3.4375 22.5625 -2.601562 22.65625 -1.4375 L 22.65625 -1.28125 C 22.65625 -1.082031 22.644531 -0.894531 22.625 -0.71875 C 22.601562 -0.539062 22.566406 -0.363281 22.515625 -0.1875 C 22.460938 -0.0078125 22.394531 0.164062 22.3125 0.34375 C 22.238281 0.519531 22.15625 0.679688 22.0625 0.828125 C 21.851562 1.085938 21.609375 1.316406 21.328125 1.515625 C 21.054688 1.710938 20.769531 1.863281 20.46875 1.96875 C 20.164062 2.070312 19.863281 2.125 19.5625 2.125 L 19.484375 2.125 C 16.546875 1.96875 13.914062 1.890625 11.59375 1.890625 C 10.476562 1.890625 9.265625 1.898438 7.953125 1.921875 C 6.640625 1.953125 5.253906 2.019531 3.796875 2.125 L 3.71875 2.125 C 2.757812 2.125 1.972656 1.71875 1.359375 0.90625 Z M 6.375 -43.96875 C 5.007812 -45.226562 4.328125 -46.789062 4.328125 -48.65625 C 4.328125 -49.113281 4.390625 -49.554688 4.515625 -49.984375 C 4.640625 -50.410156 4.800781 -50.828125 5 -51.234375 C 5.207031 -51.640625 5.460938 -52.003906 5.765625 -52.328125 C 6.066406 -52.660156 6.421875 -52.976562 6.828125 -53.28125 C 7.535156 -53.84375 8.332031 -54.273438 9.21875 -54.578125 C 10.101562 -54.878906 11 -55.03125 11.90625 -55.03125 C 12.457031 -55.03125 13.007812 -54.953125 13.5625 -54.796875 C 14.125 -54.648438 14.644531 -54.4375 15.125 -54.15625 C 15.601562 -53.875 16.019531 -53.507812 16.375 -53.0625 C 17.539062 -51.84375 18.125 -50.300781 18.125 -48.4375 C 18.125 -46.664062 17.441406 -45.148438 16.078125 -43.890625 C 14.765625 -42.722656 13.144531 -42.140625 11.21875 -42.140625 C 9.300781 -42.140625 7.6875 -42.75 6.375 -43.96875 Z M 6.375 -43.96875 "/></g></g></g><g fill="#000000" fill-opacity="1"><g transform="translate(345.072456, 151.508226)"><g><path d="M 6.0625 -2.734375 C 2.832031 -6.367188 1.21875 -11.191406 1.21875 -17.203125 C 1.3125 -20.992188 2.242188 -24.378906 4.015625 -27.359375 C 4.566406 -28.367188 5.207031 -29.300781 5.9375 -30.15625 C 6.675781 -31.019531 7.472656 -31.804688 8.328125 -32.515625 C 9.191406 -33.222656 10.128906 -33.851562 11.140625 -34.40625 C 13.367188 -35.71875 15.769531 -36.550781 18.34375 -36.90625 C 19.15625 -37.007812 20.015625 -37.085938 20.921875 -37.140625 C 22.078125 -37.140625 23.1875 -37.0625 24.25 -36.90625 C 25.3125 -36.757812 26.332031 -36.535156 27.3125 -36.234375 C 28.300781 -35.929688 29.253906 -35.550781 30.171875 -35.09375 C 31.628906 -34.332031 32.75 -33.28125 33.53125 -31.9375 C 34.320312 -30.601562 34.71875 -29.078125 34.71875 -27.359375 C 34.71875 -25.335938 34.109375 -23.570312 32.890625 -22.0625 C 31.578125 -20.394531 29.835938 -19.5625 27.671875 -19.5625 C 26.304688 -19.5625 25.117188 -19.9375 24.109375 -20.6875 C 22.890625 -21.550781 22.28125 -22.488281 22.28125 -23.5 C 22.28125 -23.851562 22.316406 -24.164062 22.390625 -24.4375 C 22.472656 -24.71875 22.578125 -24.921875 22.703125 -25.046875 C 22.828125 -25.171875 22.9375 -25.257812 23.03125 -25.3125 C 23.132812 -25.363281 23.25 -25.414062 23.375 -25.46875 C 23.507812 -25.519531 23.578125 -25.570312 23.578125 -25.625 C 23.929688 -25.875 24.257812 -26.226562 24.5625 -26.6875 C 24.613281 -26.832031 24.660156 -26.976562 24.703125 -27.125 C 24.753906 -27.28125 24.78125 -27.460938 24.78125 -27.671875 C 24.78125 -27.816406 24.78125 -27.953125 24.78125 -28.078125 C 24.78125 -28.203125 24.765625 -28.328125 24.734375 -28.453125 C 24.710938 -28.585938 24.675781 -28.703125 24.625 -28.796875 C 24.582031 -28.898438 24.535156 -28.988281 24.484375 -29.0625 C 24.429688 -29.144531 24.378906 -29.222656 24.328125 -29.296875 C 24.273438 -29.367188 24.210938 -29.429688 24.140625 -29.484375 C 24.066406 -29.535156 23.976562 -29.613281 23.875 -29.71875 C 23.46875 -29.96875 23.023438 -30.164062 22.546875 -30.3125 C 22.066406 -30.46875 21.5 -30.546875 20.84375 -30.546875 C 20.238281 -30.546875 19.679688 -30.519531 19.171875 -30.46875 C 17.003906 -30.113281 15.488281 -29.078125 14.625 -27.359375 C 13.363281 -24.734375 12.734375 -21.425781 12.734375 -17.4375 C 12.734375 -13.59375 13.566406 -10.457031 15.234375 -8.03125 C 16.796875 -5.863281 18.84375 -4.78125 21.375 -4.78125 C 21.976562 -4.78125 22.554688 -4.816406 23.109375 -4.890625 C 23.671875 -4.960938 24.191406 -5.085938 24.671875 -5.265625 C 25.148438 -5.441406 25.59375 -5.65625 26 -5.90625 C 27.257812 -6.664062 28.445312 -7.878906 29.5625 -9.546875 C 29.8125 -9.953125 30.148438 -10.269531 30.578125 -10.5 C 31.015625 -10.726562 31.457031 -10.84375 31.90625 -10.84375 C 32.414062 -10.84375 33 -10.691406 33.65625 -10.390625 C 34.207031 -10.128906 34.644531 -9.722656 34.96875 -9.171875 C 35.300781 -8.617188 35.46875 -8.035156 35.46875 -7.421875 C 35.46875 -6.921875 35.289062 -6.394531 34.9375 -5.84375 L 34.9375 -5.765625 L 34.859375 -5.765625 C 33.046875 -3.128906 30.773438 -1.054688 28.046875 0.453125 C 25.316406 2.015625 22.507812 2.796875 19.625 2.796875 C 13.914062 2.796875 9.394531 0.953125 6.0625 -2.734375 Z M 6.0625 -2.734375 "/></g></g></g><g fill="#000000" fill-opacity="1"><g transform="translate(381.072226, 151.508226)"><g><path d="M 10.609375 0.078125 C 9.847656 -0.378906 9.140625 -0.875 8.484375 -1.40625 C 7.828125 -1.9375 7.207031 -2.503906 6.625 -3.109375 C 6.050781 -3.710938 5.523438 -4.351562 5.046875 -5.03125 C 4.566406 -5.71875 4.125 -6.414062 3.71875 -7.125 C 2.050781 -10.15625 1.21875 -13.335938 1.21875 -16.671875 C 1.21875 -20.816406 2.203125 -24.457031 4.171875 -27.59375 C 6.085938 -30.675781 8.5625 -33.035156 11.59375 -34.671875 C 14.625 -36.316406 17.679688 -37.140625 20.765625 -37.140625 C 22.640625 -37.140625 24.4375 -36.910156 26.15625 -36.453125 C 27.875 -36.003906 29.460938 -35.320312 30.921875 -34.40625 C 33.898438 -32.59375 36.210938 -30.179688 37.859375 -27.171875 C 39.503906 -24.160156 40.328125 -20.988281 40.328125 -17.65625 C 40.328125 -13.519531 39.34375 -9.882812 37.375 -6.75 C 35.394531 -3.664062 32.890625 -1.304688 29.859375 0.328125 C 26.828125 1.972656 23.796875 2.796875 20.765625 2.796875 C 16.972656 2.796875 13.585938 1.890625 10.609375 0.078125 Z M 26.6875 -7.203125 C 26.9375 -7.703125 27.171875 -8.242188 27.390625 -8.828125 C 27.617188 -9.410156 27.820312 -10.03125 28 -10.6875 C 28.175781 -11.34375 28.328125 -12.035156 28.453125 -12.765625 C 28.585938 -13.503906 28.675781 -14.289062 28.71875 -15.125 C 28.769531 -15.957031 28.796875 -16.800781 28.796875 -17.65625 C 28.796875 -21.65625 28.066406 -24.890625 26.609375 -27.359375 C 25.335938 -29.484375 23.390625 -30.546875 20.765625 -30.546875 C 19.296875 -30.546875 18.09375 -30.28125 17.15625 -29.75 C 16.226562 -29.21875 15.460938 -28.375 14.859375 -27.21875 C 14.398438 -26.351562 14.019531 -25.398438 13.71875 -24.359375 C 13.414062 -23.328125 13.175781 -22.179688 13 -20.921875 C 12.820312 -19.660156 12.734375 -18.296875 12.734375 -16.828125 C 12.734375 -12.835938 13.46875 -9.578125 14.9375 -7.046875 C 15.59375 -5.929688 16.375 -5.109375 17.28125 -4.578125 C 18.1875 -4.054688 19.347656 -3.796875 20.765625 -3.796875 C 21.722656 -3.796875 22.554688 -3.921875 23.265625 -4.171875 C 23.972656 -4.421875 24.601562 -4.785156 25.15625 -5.265625 C 25.71875 -5.742188 26.226562 -6.390625 26.6875 -7.203125 Z M 26.6875 -7.203125 "/></g></g></g></svg>